HIERARCHY
ROOT Hips
{
	OFFSET 0.00 0.00 0.00
	CHANNELS 6 Xposition Yposition Zposition Xrotation Yrotation Zrotation
	JOINT Spine
	{
		OFFSET 0.00000 6.11665 0.00000
		CHANNELS 3 Xrotation Yrotation Zrotation
		JOINT Head
		{
			OFFSET 0.00000 15.22556 0.00000
			CHANNELS 3 Xrotation Yrotation Zrotation
			End Site
			{
				OFFSET 0.00000 4.52755 0.00000
			}
		}
		JOINT LeftShoulder
		{
			OFFSET 0.00000 8.97765 0.00000
			CHANNELS 3 Xrotation Yrotation Zrotation
			JOINT LeftArm
			{
				OFFSET 7.11013 0.00000 0.00000
				CHANNELS 3 Xrotation Yrotation Zrotation
				JOINT LeftForeArm
				{
					OFFSET 10.39834 0.00000 0.00000
					CHANNELS 3 Yrotation Zrotation Xrotation
					JOINT LeftHand
					{
						OFFSET 8.88900 0.00000 0.00000
						CHANNELS 3 Xrotation Yrotation Zrotation
						JOINT LeftHandThumb1
						{
							OFFSET 0.00000 0.00000 0.00000
							CHANNELS 3 Xrotation Zrotation Yrotation
							End Site
							{
								OFFSET 0.00000 0.00000 3.93700
							}
						}
						End Site
						{
							OFFSET 3.93700 0.00000 0.00000
						}
					}
				}
			}
		}
		JOINT RightShoulder
		{
			OFFSET 0.00000 8.97765 0.00000
			CHANNELS 3 Xrotation Yrotation Zrotation
			JOINT RightArm
			{
				OFFSET -7.11013 0.00000 0.00000
				CHANNELS 3 Xrotation Yrotation Zrotation
				JOINT RightForeArm
				{
					OFFSET -10.39834 0.00000 0.00000
					CHANNELS 3 Yrotation Zrotation Xrotation
					JOINT RightHand
					{
						OFFSET -8.88900 0.00000 0.00000
						CHANNELS 3 Xrotation Yrotation Zrotation
						JOINT RightHandThumb1
						{
							OFFSET 0.00000 0.00000 0.00000
							CHANNELS 3 Xrotation Zrotation Yrotation
							End Site
							{
								OFFSET 0.00000 0.00000 3.93700
							}
						}
						End Site
						{
							OFFSET -3.93700 0.00000 0.00000
						}
					}
				}
			}
		}
	}
	JOINT LeftUpLeg
	{
		OFFSET 4.71176 0.00000 0.00000
		CHANNELS 3 Xrotation Yrotation Zrotation
		JOINT LeftLeg
		{
			OFFSET 0.00000 -15.51045 0.00000
			CHANNELS 3 Xrotation Yrotation Zrotation
			JOINT LeftFoot
			{
				OFFSET 0.00000 -14.85806 0.00000
				CHANNELS 3 Xrotation Yrotation Zrotation
				JOINT LeftToeBase
				{
					OFFSET 0.00000 -1.32744 4.95409
					CHANNELS 3 Xrotation Yrotation Zrotation
					End Site
					{
						OFFSET 0.00000 0.00000 2.95275
					}
				}
			}
		}
	}
	JOINT RightUpLeg
	{
		OFFSET -4.71176 0.00000 0.00000
		CHANNELS 3 Xrotation Yrotation Zrotation
		JOINT RightLeg
		{
			OFFSET 0.00000 -15.51045 0.00000
			CHANNELS 3 Xrotation Yrotation Zrotation
			JOINT RightFoot
			{
				OFFSET 0.00000 -14.85806 0.00000
				CHANNELS 3 Xrotation Yrotation Zrotation
				JOINT RightToeBase
				{
					OFFSET 0.00000 -1.32744 4.95409
					CHANNELS 3 Xrotation Yrotation Zrotation
					End Site
					{
						OFFSET 0.00000 0.00000 2.95275
					}
				}
			}
		}
	}
}
MOTION
Frames:	19
Frame Time: 0.008333
-4.2493 32.4725 0.7215 -4.0280 -9.6454 -2.0435 -0.6540 -8.8183 1.6226 11.8016 20.1551 1.0116 -18.4237 -7.3112 54.2189 -83.1387 8.4861 -21.8971 -112.2969 0.0000 -33.6163 5.8534 -30.2599 11.4993 32.8623 0.0000 24.3270 -10.1908 -1.4520 -22.9600 -3.6695 37.7363 102.3858 11.1961 0.0000 3.2432 -1.3820 10.0981 7.8342 33.1476 -0.0000 -26.2537 10.9688 3.0957 -3.0265 -0.7058 0.0000 -0.0000 -9.7105 23.1407 -6.0350 11.7548 -0.0000 -0.0000 8.7998 6.2756 0.8980 2.0760 -0.0000 -0.0000 -9.7182 -16.8638 16.0218 19.0882 -0.0000 -0.0000
-4.2478 32.4722 0.7225 -4.0355 -9.6467 -2.0446 -0.6553 -8.8252 1.6223 11.7972 20.1452 1.0045 -18.4277 -7.2898 54.2201 -83.1480 8.4899 -21.9324 -112.3021 0.0000 -33.6375 5.8162 -30.2296 11.4378 32.8623 0.0000 24.3270 -10.1982 -1.4362 -22.9587 -3.6322 37.6849 102.3864 11.1859 0.0000 3.2636 -1.3689 10.0917 7.7660 33.1476 -0.0000 -26.2537 10.9803 3.0966 -3.0289 -0.7119 0.0000 -0.0000 -9.7138 23.1341 -6.0355 11.7591 -0.0000 -0.0000 8.7997 6.3137 0.8955 2.0956 -0.0000 -0.0000 -9.7213 -16.8903 16.0184 19.0320 -0.0000 -0.0000
-4.2460 32.4715 0.7242 -4.0424 -9.6379 -2.0466 -0.6559 -8.8266 1.6271 11.7683 20.1349 1.0004 -18.4374 -7.2870 54.2157 -83.1539 8.4972 -21.9681 -112.2990 0.0000 -33.6489 5.8086 -30.2407 11.4195 32.8623 0.0000 24.3270 -10.1913 -1.4442 -22.9681 -3.6282 37.6649 102.3969 11.1656 0.0000 3.2753 -1.3711 10.1315 7.7486 33.1476 -0.0000 -26.2537 10.9854 3.1084 -3.0301 -0.7022 0.0000 -0.0000 -9.7279 23.1140 -6.0316 11.7577 -0.0000 -0.0000 8.8093 6.2762 0.8935 2.0911 -0.0000 -0.0000 -9.7773 -16.8578 15.8772 19.2759 -0.0000 -0.0000
-4.2442 32.4710 0.7250 -4.0472 -9.6362 -2.0427 -0.6593 -8.8381 1.6249 11.7621 20.1354 0.9801 -18.4356 -7.2539 54.2202 -83.1742 8.5080 -22.0003 -112.2992 0.0000 -33.6812 5.8122 -30.2784 11.4138 32.8623 0.0000 24.3270 -10.1801 -1.4327 -22.9704 -3.6133 37.6485 102.3981 11.1657 0.0000 3.2798 -1.3654 10.1319 7.7161 33.1476 -0.0000 -26.2537 10.9961 3.1166 -3.0382 -0.7114 0.0000 -0.0000 -9.7189 23.1015 -6.0470 11.7308 -0.0000 -0.0000 8.8071 6.2850 0.8885 2.1158 -0.0000 -0.0000 -9.7585 -16.8878 16.0184 19.1253 -0.0000 -0.0000
-4.2429 32.4705 0.7251 -4.0494 -9.6325 -2.0457 -0.6638 -8.8413 1.6285 11.7599 20.1146 0.9681 -18.4396 -7.2510 54.2203 -83.1772 8.5193 -22.0230 -112.3012 0.0000 -33.6736 5.8279 -30.2703 11.4466 32.8623 0.0000 24.3270 -10.1782 -1.4347 -22.9745 -3.6140 37.6506 102.4132 11.1439 0.0000 3.2588 -1.3606 10.1386 7.6843 33.1476 -0.0000 -26.2537 10.9966 3.1169 -3.0365 -0.7087 0.0000 -0.0000 -9.7220 23.0915 -6.0507 11.7585 -0.0000 -0.0000 8.8030 6.2850 0.8897 2.1240 -0.0000 -0.0000 -9.8034 -16.8766 15.8744 19.2644 -0.0000 -0.0000
-4.2412 32.4702 0.7249 -4.0476 -9.6280 -2.0438 -0.6675 -8.8422 1.6310 11.7439 20.0897 0.9601 -18.4490 -7.2381 54.2309 -83.1838 8.5518 -22.0538 -112.3076 0.0000 -33.6727 5.8272 -30.2628 11.4479 32.8623 0.0000 24.3270 -10.1772 -1.4400 -22.9809 -3.6122 37.6513 102.4243 11.1295 -0.0000 3.2331 -1.3647 10.1312 7.7128 33.1476 -0.0000 -26.2537 10.9900 3.1250 -3.0407 -0.7010 0.0000 -0.0000 -9.7287 23.0824 -6.0450 11.7661 -0.0000 -0.0000 8.7958 6.3205 0.8878 2.1519 -0.0000 -0.0000 -9.7768 -16.8735 15.9481 18.9778 -0.0000 -0.0000
-4.2398 32.4695 0.7251 -4.0518 -9.6259 -2.0468 -0.6686 -8.8278 1.6385 11.7444 20.0582 0.9389 -18.4550 -7.2345 54.2271 -83.1989 8.5732 -22.0841 -112.3122 -0.0000 -33.6763 5.8230 -30.2470 11.4450 32.8623 0.0000 24.3270 -10.1746 -1.4521 -22.9938 -3.6179 37.6519 102.4491 11.0998 -0.0000 3.2188 -1.3632 10.1726 7.6740 33.1476 -0.0000 -26.2537 10.9985 3.1460 -3.0389 -0.7033 0.0000 -0.0000 -9.7399 23.0561 -6.0539 11.7385 -0.0000 -0.0000 8.7913 6.3226 0.8878 2.1535 -0.0000 -0.0000 -9.8205 -16.9187 15.8661 19.2669 -0.0000 -0.0000
-4.2381 32.4693 0.7248 -4.0533 -9.6181 -2.0455 -0.6704 -8.8274 1.6416 11.7384 20.0311 0.9186 -18.4597 -7.2388 54.2237 -83.2094 8.5946 -22.0969 -112.3200 0.0000 -33.6818 5.8192 -30.2517 11.4362 32.8623 0.0000 24.3270 -10.1710 -1.4552 -22.9989 -3.6106 37.6558 102.4562 11.0976 0.0000 3.2387 -1.3673 10.1527 7.7115 33.1476 -0.0000 -26.2537 10.9951 3.1270 -3.0423 -0.6978 0.0000 -0.0000 -9.7439 23.0661 -6.0630 11.7907 -0.0000 -0.0000 8.7900 6.3451 0.8853 2.1667 -0.0000 -0.0000 -9.7938 -16.9646 16.0122 19.0839 -0.0000 -0.0000
-4.2369 32.4700 0.7241 -4.0524 -9.6078 -2.0479 -0.6707 -8.8348 1.6465 11.7513 20.0016 0.9155 -18.6197 -7.3870 54.2160 -82.9979 8.6260 -22.1683 -112.3202 -0.0000 -33.6591 5.7908 -30.2553 11.3802 32.8623 0.0000 24.3270 -10.0679 -1.4782 -22.9847 -3.6765 37.6208 102.4422 11.0998 0.0000 3.2723 -1.3653 10.1498 7.7021 33.1476 -0.0000 -26.2537 10.9897 3.1072 -3.0402 -0.6957 0.0000 -0.0000 -9.7446 23.0801 -6.0508 11.8152 -0.0000 -0.0000 8.7792 6.3224 0.8906 2.1864 -0.0000 -0.0000 -9.7931 -16.9441 15.9915 19.0366 -0.0000 -0.0000
-4.2356 32.4697 0.7235 -4.0530 -9.6084 -2.0484 -0.6701 -8.8203 1.6521 11.7343 19.9458 0.9101 -18.6498 -7.4210 54.2071 -82.9743 8.6462 -22.1742 -112.3210 0.0000 -33.6565 5.7960 -30.2482 11.3926 32.8623 0.0000 24.3270 -10.0863 -1.4784 -22.9720 -3.6443 37.6187 102.4303 11.0627 0.0000 3.2355 -1.4576 10.2512 8.1371 33.1476 -0.0000 -26.2537 10.9909 3.1212 -3.0412 -0.6977 0.0000 -0.0000 -9.7447 23.0631 -6.0640 11.7837 -0.0000 -0.0000 8.7676 6.3462 0.8889 2.2029 -0.0000 -0.0000 -9.8563 -16.9581 15.8414 19.2666 -0.0000 -0.0000
-4.2346 32.4695 0.7218 -4.0532 -9.6031 -2.0504 -0.6700 -8.8199 1.6561 11.7321 19.9397 0.8903 -18.6248 -7.3840 54.2084 -83.0320 8.6618 -22.1806 -112.3196 0.0000 -33.6311 5.7970 -30.2383 11.3979 32.8623 0.0000 24.3270 -10.0687 -1.4871 -22.9863 -3.6687 37.6292 102.4592 11.0725 0.0000 3.2921 -1.3952 10.1275 7.8861 33.1476 -0.0000 -26.2537 10.9845 3.0956 -3.0389 -0.6923 0.0000 -0.0000 -9.7458 23.0760 -6.0474 11.7299 -0.0000 -0.0000 8.7561 6.3483 0.8917 2.2198 -0.0000 -0.0000 -9.8600 -16.9637 15.8556 19.2708 -0.0000 -0.0000
-4.2329 32.4693 0.7210 -4.0553 -9.5967 -2.0495 -0.6651 -8.8244 1.6602 11.7252 19.9197 0.8666 -18.6448 -7.3907 54.2071 -83.0267 8.6877 -22.1864 -112.3107 0.0000 -33.6381 5.7501 -30.2436 11.3056 32.8623 0.0000 24.3270 -10.0886 -1.4855 -22.9807 -3.6561 37.6460 102.4630 11.0408 -0.0000 3.1603 -1.3280 10.2687 7.4095 33.1476 -0.0000 -26.2537 10.9826 3.0936 -3.0408 -0.6899 0.0000 -0.0000 -9.7534 23.0724 -6.0517 11.7844 -0.0000 -0.0000 8.7448 6.3640 0.8914 2.2463 -0.0000 -0.0000 -9.8765 -16.9915 15.8509 19.2839 -0.0000 -0.0000
-4.2323 32.4690 0.7201 -4.0585 -9.5858 -2.0542 -0.6628 -8.8343 1.6670 11.7382 19.9059 0.8524 -18.6519 -7.3885 54.2029 -83.0407 8.6992 -22.1957 -112.2961 0.0000 -33.6600 5.7010 -30.2420 11.2115 32.8623 0.0000 24.3270 -10.0932 -1.4862 -22.9775 -3.6472 37.6339 102.4691 11.0246 -0.0000 3.1757 -1.3187 10.2358 7.3809 33.1476 -0.0000 -26.2537 10.9814 3.0574 -3.0349 -0.6864 0.0000 -0.0000 -9.7624 23.0823 -6.0381 11.7750 -0.0000 -0.0000 8.7306 6.3358 0.9000 2.2802 -0.0000 -0.0000 -9.8912 -16.9784 15.8325 19.2921 -0.0000 -0.0000
-4.2314 32.4685 0.7183 -4.0573 -9.5812 -2.0527 -0.6574 -8.8300 1.6691 11.7280 19.8976 0.8360 -18.5235 -7.2124 54.2045 -83.2673 8.6858 -22.1793 -112.2821 0.0000 -33.6931 5.7248 -30.2389 11.2584 32.8623 0.0000 24.3270 -10.0917 -1.5064 -22.9824 -3.6604 37.6202 102.4810 11.0012 0.0000 3.1551 -1.3575 10.2454 7.5889 33.1476 -0.0000 -26.2537 10.9722 3.0599 -3.0354 -0.6782 0.0000 -0.0000 -9.7661 23.0788 -6.0497 11.7980 -0.0000 -0.0000 8.7215 6.3511 0.8989 2.2901 -0.0000 -0.0000 -9.8984 -16.9945 15.8230 19.2521 -0.0000 -0.0000
-4.2301 32.4683 0.7167 -4.0556 -9.5794 -2.0500 -0.6597 -8.8310 1.6688 11.7414 19.8779 0.8285 -18.5151 -7.1820 54.1976 -83.2916 8.6763 -22.1946 -112.2667 0.0000 -33.7423 5.7257 -30.2501 11.2564 32.8623 0.0000 24.3270 -10.0935 -1.5109 -22.9835 -3.6491 37.6287 102.4891 11.0163 -0.0000 3.3152 -1.3767 10.0564 7.8366 33.1476 -0.0000 -26.2537 10.9653 3.0594 -3.0392 -0.6753 0.0000 -0.0000 -9.7626 23.0767 -6.0427 11.7570 -0.0000 -0.0000 8.7156 6.4288 0.8967 2.3033 -0.0000 -0.0000 -9.9017 -17.0281 15.8005 19.1103 -0.0000 -0.0000
-4.2293 32.4683 0.7151 -4.0548 -9.5718 -2.0528 -0.6558 -8.8317 1.6742 11.7424 19.8611 0.8269 -18.5273 -7.1716 54.1995 -83.2876 8.6864 -22.2167 -112.2699 0.0000 -33.7675 5.7543 -30.2430 11.3140 32.8623 0.0000 24.3270 -10.0981 -1.5192 -22.9773 -3.6445 37.5861 102.4943 10.9782 0.0000 3.3847 -1.3797 10.0553 7.8541 33.1476 -0.0000 -26.2537 10.9631 3.0427 -3.0357 -0.6807 0.0000 -0.0000 -9.7654 23.0883 -6.0421 11.8107 -0.0000 -0.0000 8.7032 6.4277 0.9006 2.3202 -0.0000 -0.0000 -9.8754 -17.0948 15.9818 19.0974 -0.0000 -0.0000
-4.2274 32.4678 0.7144 -4.0564 -9.5618 -2.0386 -0.6564 -8.8430 1.6619 11.7529 19.8696 0.7956 -18.5119 -7.1421 54.1969 -83.3166 8.6859 -22.2201 -112.2690 0.0000 -33.7887 5.7857 -30.2464 11.3734 32.8623 0.0000 24.3270 -10.0908 -1.5264 -22.9744 -3.6457 37.5504 102.4993 10.9586 0.0000 3.3877 -1.3776 10.0569 7.8408 33.1476 -0.0000 -26.2537 10.9601 3.0206 -3.0513 -0.6765 0.0000 -0.0000 -9.7640 23.0945 -6.0478 11.7832 -0.0000 -0.0000 8.7077 6.5302 0.8882 2.3116 -0.0000 -0.0000 -9.9463 -17.1996 15.7906 19.3306 -0.0000 -0.0000
-4.2277 32.4684 0.7113 -4.0532 -9.5653 -2.0503 -0.6544 -8.8433 1.6730 11.7574 19.8747 0.8070 -18.5139 -7.1367 54.2016 -83.3001 8.6927 -22.2177 -112.2881 -0.0000 -33.7696 5.7982 -30.2603 11.3928 32.8623 0.0000 24.3270 -10.0987 -1.5235 -22.9533 -3.6236 37.5305 102.4859 10.9518 0.0000 3.3693 -1.3767 10.0449 7.8451 33.1476 -0.0000 -26.2537 10.9498 3.0302 -3.0362 -0.6716 0.0000 -0.0000 -9.7726 23.0812 -6.0454 11.8439 -0.0000 -0.0000 8.6812 6.4764 0.9014 2.3513 -0.0000 -0.0000 -9.9298 -17.0799 15.7467 19.2062 -0.0000 -0.0000
-4.2255 32.4684 0.7104 -4.0552 -9.5541 -2.0416 -0.6522 -8.8441 1.6700 11.7694 19.8744 0.7835 -18.5062 -7.1234 54.1910 -83.3106 8.6899 -22.2196 -112.3010 0.0000 -33.7541 5.8340 -30.2199 11.4753 32.8623 0.0000 24.3270 -10.1043 -1.5324 -22.9532 -3.6201 37.5115 102.4930 10.9224 -0.0000 3.3983 -1.3711 10.0748 7.7908 33.1476 -0.0000 -26.2537 10.9520 3.0130 -3.0477 -0.6798 0.0000 -0.0000 -9.7600 23.0875 -6.0483 11.7893 -0.0000 -0.0000 8.6808 6.5326 0.8930 2.3510 -0.0000 -0.0000 -9.9426 -17.2078 15.8140 19.2904 -0.0000 -0.0000
